<svg width="366" height="355" viewBox="0 0 366 355" fill="none" xmlns="http://www.w3.org/2000/svg">
<path d="M187.84 336.895L187.773 353.856H177L177.168 308L192.318 308.05C195.218 308.007 198.11 308.362 200.911 309.105C203.019 309.664 204.989 310.642 206.701 311.978C208.122 313.132 209.225 314.62 209.908 316.306C210.595 318.03 210.935 319.869 210.91 321.721C210.913 323.147 210.703 324.566 210.287 325.932C209.89 327.242 209.278 328.479 208.477 329.595C207.653 330.734 206.66 331.745 205.532 332.593C204.308 333.501 202.955 334.226 201.517 334.744C202.24 335.108 202.918 335.554 203.537 336.073C204.183 336.626 204.737 337.276 205.178 338L215 353.988H205.245C204.47 354.046 203.693 353.886 203.005 353.528C202.318 353.169 201.746 352.627 201.357 351.962L193.698 338.631C193.425 338.11 193.012 337.673 192.503 337.369C191.904 337.081 191.241 336.95 190.576 336.987L187.84 336.895ZM187.84 329.57H192.175C193.445 329.601 194.712 329.419 195.92 329.03C196.865 328.717 197.727 328.2 198.445 327.518C199.1 326.883 199.594 326.103 199.884 325.243C200.192 324.335 200.348 323.384 200.347 322.427C200.397 321.543 200.246 320.66 199.903 319.842C199.561 319.024 199.037 318.292 198.369 317.701C197.051 316.56 194.997 315.987 192.208 315.982H187.874L187.84 329.57Z" fill="#000022"/>
<path d="M240.558 353.514C239.855 353.557 239.152 353.425 238.509 353.129C237.959 352.752 237.554 352.191 237.362 351.54L236.687 349.734C235.874 350.428 235.118 351.039 234.378 351.565C233.652 352.082 232.882 352.529 232.077 352.904C231.268 353.281 230.42 353.562 229.549 353.74C228.567 353.922 227.571 354.009 226.573 353.999C225.228 354.008 223.89 353.805 222.605 353.397C221.489 353.04 220.458 352.444 219.581 351.649C218.734 350.865 218.077 349.888 217.662 348.797C217.194 347.547 216.97 346.214 217.003 344.875C217.022 343.617 217.322 342.38 217.881 341.262C218.582 339.897 219.616 338.745 220.881 337.916C222.649 336.762 224.588 335.915 226.622 335.407C229.594 334.673 232.647 334.342 235.704 334.42V333.023C235.704 331.083 235.324 329.689 234.565 328.842C234.146 328.397 233.639 328.05 233.077 327.825C232.516 327.6 231.914 327.501 231.313 327.537C230.376 327.503 229.439 327.627 228.541 327.905C227.877 328.128 227.232 328.408 226.614 328.741C226.044 329.059 225.5 329.343 224.987 329.578C224.385 329.843 223.732 329.969 223.077 329.946C222.482 329.964 221.897 329.791 221.402 329.452C220.948 329.138 220.574 328.717 220.312 328.223L218.597 325.145C220.479 323.438 222.662 322.118 225.028 321.256C227.464 320.398 230.024 319.974 232.598 320.001C234.38 319.984 236.15 320.319 237.809 320.988C239.293 321.594 240.635 322.518 241.745 323.698C242.826 324.881 243.657 326.282 244.184 327.813C244.757 329.48 245.033 331.239 244.997 333.007L244.924 353.531L240.558 353.514ZM229.614 347.492C230.731 347.521 231.841 347.298 232.866 346.84C233.921 346.302 234.874 345.574 235.679 344.691V340.191C234.1 340.161 232.521 340.284 230.963 340.559C229.95 340.738 228.965 341.059 228.036 341.512C227.425 341.789 226.906 342.242 226.54 342.817C226.259 343.296 226.113 343.847 226.118 344.406C226.069 344.848 226.125 345.294 226.279 345.709C226.433 346.124 226.682 346.494 227.004 346.79C227.779 347.303 228.693 347.549 229.614 347.492Z" fill="#000022"/>
<path d="M264.303 354.999C262.982 355.02 261.668 354.784 260.426 354.303C259.361 353.889 258.396 353.225 257.603 352.36C256.823 351.496 256.23 350.461 255.865 349.327C255.462 348.048 255.265 346.705 255.284 345.355L255.347 328.347H252.72C252.269 328.355 251.833 328.178 251.501 327.853C251.325 327.664 251.19 327.436 251.104 327.186C251.019 326.936 250.985 326.669 251.006 326.403V322.549L255.928 321.552L257.768 313.534C257.865 313.056 258.128 312.634 258.504 312.353C258.88 312.071 259.342 311.952 259.797 312.018H264.625V321.636H272.127V328.339H264.625L264.57 344.685C264.539 345.359 264.719 346.025 265.081 346.578C265.255 346.824 265.483 347.021 265.745 347.151C266.007 347.281 266.295 347.341 266.583 347.324C266.87 347.332 267.156 347.296 267.433 347.215C267.64 347.156 267.841 347.072 268.03 346.964L268.51 346.713C268.674 346.64 268.851 346.602 269.029 346.604C269.267 346.593 269.502 346.667 269.697 346.813C269.902 347 270.077 347.22 270.216 347.467L273 352.142C271.786 353.099 270.423 353.819 268.974 354.27C267.459 354.758 265.885 355.004 264.303 354.999Z" fill="#000022"/>
<path d="M292.283 321.002C294.319 320.984 296.342 321.331 298.256 322.027C299.997 322.677 301.58 323.693 302.898 325.008C304.232 326.361 305.264 327.984 305.926 329.768C306.675 331.81 307.038 333.974 306.997 336.15C306.996 336.756 306.963 337.361 306.896 337.963C306.855 338.354 306.732 338.731 306.537 339.072C306.383 339.334 306.144 339.536 305.859 339.643C305.506 339.758 305.135 339.809 304.763 339.794L285.817 339.727C286.13 342.486 286.966 344.487 288.327 345.73C289.759 347.011 291.63 347.685 293.546 347.611C294.543 347.64 295.538 347.504 296.491 347.208C297.251 346.965 297.989 346.659 298.699 346.293L300.472 345.377C300.99 345.112 301.564 344.974 302.145 344.974C302.488 344.951 302.83 345.016 303.141 345.163C303.451 345.31 303.719 345.534 303.919 345.814L306.754 349.349C305.809 350.477 304.701 351.456 303.467 352.254C302.328 352.952 301.113 353.515 299.845 353.933C298.641 354.336 297.399 354.618 296.139 354.773C294.966 354.929 293.784 355.004 292.601 355C290.392 355.01 288.199 354.62 286.127 353.85C284.15 353.119 282.351 351.974 280.849 350.491C279.288 348.916 278.077 347.027 277.294 344.949C276.382 342.488 275.945 339.875 276.006 337.25C276.003 335.109 276.391 332.986 277.152 330.986C277.883 329.043 279.002 327.271 280.441 325.778C281.879 324.285 283.606 323.103 285.516 322.304C287.658 321.406 289.962 320.962 292.283 321.002ZM292.451 327.812C291.647 327.758 290.84 327.871 290.082 328.144C289.323 328.417 288.629 328.844 288.042 329.399C286.877 330.683 286.14 332.301 285.935 334.025L298.197 334.067C298.197 333.294 298.099 332.524 297.904 331.775C297.712 331.054 297.38 330.377 296.926 329.785C296.45 329.179 295.84 328.694 295.144 328.366C294.301 327.975 293.379 327.786 292.451 327.812Z" fill="#000022"/>
<path d="M334.998 312.705C335.004 313.455 334.85 314.198 334.546 314.876C334.253 315.547 333.841 316.153 333.331 316.658C332.817 317.166 332.224 317.577 331.579 317.872C330.889 318.171 330.151 318.322 329.406 318.318C328.685 318.317 327.972 318.16 327.311 317.855C326.674 317.554 326.092 317.138 325.59 316.625C325.094 316.118 324.697 315.512 324.421 314.843C324.132 314.158 323.988 313.414 324.001 312.663C323.996 311.902 324.145 311.148 324.437 310.451C324.713 309.768 325.115 309.151 325.621 308.635C326.123 308.125 326.709 307.717 327.35 307.43C328.011 307.132 328.726 306.985 329.445 307.001C330.912 306.992 332.327 307.584 333.393 308.652C333.899 309.17 334.306 309.787 334.593 310.468C334.882 311.173 335.02 311.937 334.998 312.705ZM333.915 321.586L333.806 354H324.663L324.772 321.578L333.915 321.586Z" fill="#000022"/>
<path d="M353.558 354.998C352.11 355.024 350.67 354.788 349.31 354.303C348.147 353.893 347.095 353.231 346.232 352.368C345.37 351.504 344.72 350.461 344.331 349.317C343.884 348.039 343.669 346.694 343.695 345.344L343.755 328.333H340.891C340.632 328.343 340.373 328.298 340.133 328.202C339.892 328.106 339.676 327.962 339.497 327.778C339.319 327.593 339.183 327.374 339.099 327.135C339.014 326.895 338.984 326.641 339.008 326.389V322.551L344.383 321.554L346.404 313.534C346.509 313.056 346.797 312.634 347.208 312.353C347.619 312.071 348.124 311.952 348.622 312.018H353.893V321.638H362.097V328.342H353.885L353.825 344.682C353.8 345.356 353.995 346.019 354.384 346.576C354.574 346.822 354.823 347.019 355.109 347.149C355.396 347.279 355.711 347.339 356.026 347.322C356.323 347.34 356.621 347.317 356.912 347.255C357.137 347.19 357.356 347.106 357.565 347.004C357.736 346.911 357.911 346.828 358.09 346.752C358.267 346.671 358.462 346.634 358.657 346.643C358.917 346.629 359.174 346.7 359.388 346.844C359.614 347.029 359.806 347.25 359.956 347.498L363 352.174C361.686 353.132 360.206 353.853 358.632 354.303C356.985 354.777 355.275 355.012 353.558 354.998Z" fill="#000022"/>
<path d="M277.073 0.946372L20.2313 0C15.1247 0.00972252 10.2278 2.04607 6.60281 5.66734C2.97783 9.28861 0.917106 14.2028 0.867632 19.3438L0.00284679 259.457C-0.0536167 262.127 0.731107 264.747 2.2445 266.94C3.7579 269.133 5.92224 270.788 8.4272 271.666C10.9322 272.545 13.6491 272.602 16.1884 271.83C18.7278 271.058 20.9591 269.496 22.5625 267.369L73.9232 202.107L276.321 202.864C281.427 202.855 286.324 200.818 289.949 197.197C293.574 193.576 295.635 188.662 295.684 183.52L296.248 20.4038C296.248 15.2695 294.233 10.3432 290.641 6.69857C287.049 3.05392 282.172 0.986327 277.073 0.946372V0.946372Z" fill="#1F64FF"/>
<path d="M351.142 78.8141H309.782L309.444 191.281C309.414 198.42 306.576 205.256 301.552 210.293C296.528 215.33 289.726 218.158 282.636 218.158V218.158L137.013 217.628V219.294C137.013 223.277 138.572 227.1 141.352 229.934C144.132 232.768 147.909 234.386 151.865 234.435L308.316 234.928L347.983 285.729C349.226 287.324 350.932 288.491 352.863 289.066C354.794 289.642 356.856 289.598 358.761 288.94C360.666 288.283 362.321 287.045 363.496 285.397C364.671 283.75 365.307 281.776 365.317 279.748L365.993 93.9182C365.984 89.9414 364.421 86.1281 361.642 83.302C358.863 80.4758 355.091 78.8638 351.142 78.8141Z" fill="#1F64FF"/>
<path d="M182.095 115.268L206.084 95.5078C206.8 94.8887 207.318 94.0695 207.573 93.1539C207.827 92.2384 207.806 91.2675 207.512 90.364C207.218 89.4605 206.665 88.665 205.922 88.078C205.179 87.491 204.281 87.1389 203.339 87.0662L172.508 85.0599C171.593 85.0057 170.713 84.6878 169.973 84.1441C169.233 83.6004 168.664 82.8539 168.334 81.9936L157.054 52.8075C156.705 51.8926 156.089 51.1057 155.287 50.5506C154.485 49.9955 153.534 49.6984 152.561 49.6984C151.588 49.6984 150.637 49.9955 149.835 50.5506C149.033 51.1057 148.417 51.8926 148.068 52.8075L136.788 81.8043C136.438 82.6553 135.858 83.3903 135.113 83.9257C134.369 84.461 133.49 84.7753 132.577 84.8327L101.52 86.4226C100.553 86.4696 99.622 86.8092 98.8495 87.3971C98.077 87.985 97.4986 88.7939 97.19 89.718C96.8813 90.6421 96.8567 91.6384 97.1194 92.5768C97.3821 93.5152 97.9198 94.352 98.6624 94.9778L122.538 114.814C123.219 115.421 123.722 116.204 123.993 117.078C124.265 117.951 124.295 118.883 124.08 119.773L116.146 150.057C115.928 151 115.995 151.988 116.34 152.893C116.685 153.797 117.291 154.577 118.08 155.131C118.869 155.685 119.806 155.989 120.768 156.002C121.73 156.015 122.674 155.737 123.478 155.205L149.572 138.511C150.326 137.995 151.217 137.719 152.129 137.719C153.04 137.719 153.931 137.995 154.685 138.511L180.779 155.432C181.588 155.936 182.527 156.188 183.478 156.155C184.429 156.122 185.349 155.806 186.121 155.247C186.894 154.688 187.484 153.911 187.818 153.014C188.153 152.117 188.215 151.141 187.998 150.208L180.479 119.924C180.313 119.073 180.376 118.194 180.66 117.376C180.944 116.557 181.44 115.83 182.095 115.268V115.268Z" fill="white"/>
</svg>
